<svg width="36" height="33" viewBox="0 0 36 33" fill="none" xmlns="http://www.w3.org/2000/svg">
<path d="M8.40404 12.1339C8.16056 12.1304 7.92152 12.1979 7.71733 12.3278C7.51314 12.4577 7.35304 12.6441 7.25738 12.8634C7.16171 13.0826 7.13482 13.3248 7.18011 13.5591C7.22541 13.7933 7.34085 14.0091 7.51175 14.179C7.68265 14.3488 7.90128 14.465 8.13983 14.5128C8.37838 14.5607 8.62607 14.5379 8.85138 14.4475C9.07669 14.3571 9.26945 14.2031 9.40512 14.0051C9.54079 13.8071 9.61325 13.5741 9.61328 13.3357C9.61567 13.1787 9.58616 13.0228 9.52646 12.8771C9.46676 12.7314 9.37806 12.5988 9.26553 12.4869C9.15301 12.3751 9.0189 12.2863 8.871 12.2257C8.7231 12.1651 8.56437 12.1339 8.40404 12.1339Z" fill="#BC955C"/>
<path d="M20.4059 12.0105C20.2329 12.0105 20.0616 12.0439 19.9017 12.1087C19.7419 12.1735 19.5966 12.2686 19.4743 12.3883C19.3519 12.5081 19.2549 12.6504 19.1887 12.8069C19.1225 12.9634 19.0884 13.1312 19.0884 13.3006C19.0931 13.6397 19.234 13.9633 19.4806 14.2014C19.7272 14.4396 20.0596 14.573 20.4059 14.573C20.7506 14.573 21.0811 14.439 21.3248 14.2003C21.5685 13.9617 21.7054 13.6381 21.7054 13.3006C21.7054 12.9615 21.5691 12.636 21.3259 12.3946C21.0827 12.1531 20.7522 12.0151 20.4059 12.0105Z" fill="#BC955C"/>
<path d="M31.2713 0.311069H5.40791C4.15857 0.311069 2.9604 0.797029 2.07698 1.66205C1.19356 2.52707 0.697266 3.70029 0.697266 4.92361V19.9983C0.697266 21.2216 1.19356 22.3949 2.07698 23.2599C2.9604 24.1249 4.15857 24.6109 5.40791 24.6109H14.5585L17.6628 31.7859C17.6628 31.7859 17.8613 32.4044 18.3847 32.4044C18.9081 32.4044 19.1247 31.7859 19.1247 31.7859L22.2291 24.6109H31.2533C31.8749 24.6155 32.4914 24.4997 33.067 24.2699C33.6427 24.0402 34.1663 23.7012 34.6076 23.2724C35.0488 22.8436 35.399 22.3336 35.638 21.7717C35.877 21.2097 36 20.607 36 19.9983V4.92361C36 4.31639 35.8776 3.71515 35.6397 3.15437C35.4019 2.5936 35.0533 2.08432 34.6139 1.65578C34.1746 1.22723 33.6532 0.887846 33.0796 0.657086C32.506 0.426326 31.8915 0.308743 31.2713 0.311069ZM11.7249 13.5832C11.7345 14.3348 11.4401 15.0596 10.9058 15.5993C10.3715 16.1391 9.64074 16.4498 8.87321 16.4638C8.53748 16.4723 8.20361 16.4123 7.89288 16.2876C7.58214 16.1628 7.30133 15.9761 7.06836 15.7392V16.2341H5.01084V7.62751C5.13718 7.62751 7.12251 7.62751 7.12251 7.62751V10.8969C7.60981 10.0663 9.05369 10.084 9.05369 10.084C9.46865 10.1309 9.86947 10.2602 10.2316 10.4642C10.5937 10.6681 10.9095 10.9422 11.1595 11.2698C11.4096 11.5974 11.5888 11.9716 11.686 12.3694C11.7832 12.7672 11.7964 13.1802 11.7249 13.5832ZM15.4428 10.3491V16.1987H13.5297V10.4198C13.5297 9.62451 12.537 9.41244 12.537 9.41244V7.36242C12.9378 7.34653 13.3376 7.41362 13.7101 7.5593C14.0826 7.70498 14.4195 7.92596 14.6989 8.20784C14.9782 8.48971 15.1937 8.82611 15.3312 9.19508C15.4688 9.56405 15.5252 9.95729 15.497 10.3491H15.4428ZM20.4062 16.4638C19.7878 16.4123 19.1982 16.1856 18.7093 15.8113C18.2204 15.437 17.8534 14.9315 17.6532 14.3563C17.453 13.7812 17.4281 13.1614 17.5818 12.5727C17.7354 11.9839 18.0608 11.4517 18.5182 11.0411C18.9757 10.6305 19.5454 10.3593 20.1577 10.2605C20.77 10.1618 21.3985 10.2398 21.9662 10.4851C22.534 10.7303 23.0166 11.1322 23.3549 11.6415C23.6932 12.1509 23.8727 12.7458 23.8715 13.3534C23.8293 14.2145 23.4415 15.0244 22.7925 15.6069C22.1436 16.1894 21.2859 16.4974 20.4062 16.4638ZM31.7406 16.4638C31.7506 16.8579 31.6784 17.2498 31.5284 17.6156C31.3785 17.9814 31.1538 18.3134 30.8683 18.5913C30.5828 18.8693 30.2424 19.0872 29.8679 19.2319C29.4935 19.3766 29.0928 19.4449 28.6904 19.4328H27.7519V17.4711H28.3114C28.3114 17.4711 29.6109 17.5772 29.5928 15.7039C29.5928 15.7039 29.3401 16.4815 27.5173 16.4815C26.8277 16.4454 26.1782 16.1527 25.7018 15.6632C25.2254 15.1737 24.958 14.5244 24.9544 13.8482V12.9293C24.9866 12.1977 25.304 11.506 25.8411 10.9965C26.3782 10.487 27.0943 10.1984 27.8421 10.19C28.1852 10.1629 28.5298 10.2198 28.8449 10.3556C29.1599 10.4913 29.4356 10.7016 29.647 10.9676V10.3491H31.7586L31.7406 16.4638Z" fill="#BC955C"/>
<path d="M28.4377 12.0458C28.1842 12.0458 27.9365 12.1194 27.7258 12.2573C27.515 12.3951 27.3508 12.5911 27.2538 12.8204C27.1568 13.0496 27.1314 13.3019 27.1809 13.5453C27.2303 13.7887 27.3524 14.0123 27.5316 14.1878C27.7108 14.3633 27.9391 14.4828 28.1877 14.5312C28.4363 14.5796 28.6939 14.5547 28.9281 14.4598C29.1622 14.3648 29.3624 14.204 29.5032 13.9976C29.644 13.7913 29.7191 13.5487 29.7191 13.3005C29.7216 13.1351 29.6901 12.9709 29.6265 12.8176C29.563 12.6642 29.4687 12.525 29.3492 12.408C29.2297 12.291 29.0875 12.1987 28.9309 12.1364C28.7744 12.0742 28.6066 12.0434 28.4377 12.0458Z" fill="#BC955C"/>
</svg>
