<svg width="31" height="29" viewBox="0 0 31 29" fill="none" xmlns="http://www.w3.org/2000/svg">
<path d="M30.2569 4.17795C30.1086 4.00685 29.9253 3.86965 29.7193 3.77564C29.5133 3.68164 29.2895 3.63303 29.063 3.63311H7.23936L6.93141 1.79486C6.8701 1.42611 6.67997 1.09105 6.39485 0.849302C6.10972 0.607552 5.74808 0.474781 5.37426 0.474609H1.82095C1.40211 0.474609 1.00042 0.640994 0.704251 0.937161C0.408084 1.23333 0.241699 1.63502 0.241699 2.05386C0.241699 2.4727 0.408084 2.87439 0.704251 3.17056C1.00042 3.46673 1.40211 3.63311 1.82095 3.63311H4.03664L6.97405 21.2639L7.04511 21.4597L7.13039 21.6982L7.3199 21.9808L7.46993 22.1577L7.77473 22.363L7.9516 22.4657C8.13561 22.5413 8.33226 22.5815 8.53119 22.5841H25.9045C26.3234 22.5841 26.7251 22.4177 27.0212 22.1216C27.3174 21.8254 27.4838 21.4237 27.4838 21.0049C27.4838 20.586 27.3174 20.1843 27.0212 19.8882C26.7251 19.592 26.3234 19.4256 25.9045 19.4256H9.87039L9.60824 17.8464H27.4838C27.8638 17.8464 28.2311 17.7094 28.5183 17.4605C28.8055 17.2116 28.9933 16.8675 29.0472 16.4914L30.6265 5.43662C30.6587 5.21259 30.6423 4.98426 30.5786 4.7671C30.5148 4.54994 30.4051 4.34902 30.2569 4.17795ZM27.2422 6.79161L26.7921 9.95011H21.1668V6.79161H27.2422ZM19.5875 6.79161V9.95011H14.8498V6.79161H19.5875ZM19.5875 11.5294V14.6879H14.8498V11.5294H19.5875ZM13.2705 6.79161V9.95011H8.53277L8.29904 9.99749L7.76525 6.79161H13.2705ZM8.55488 11.5294H13.2705V14.6879H9.08077L8.55488 11.5294ZM21.1668 14.6879V11.5294H26.5647L26.1146 14.6879H21.1668Z" fill="white"/>
<path d="M10.9016 28.9013C12.2099 28.9013 13.2705 27.8407 13.2705 26.5325C13.2705 25.2242 12.2099 24.1636 10.9016 24.1636C9.5933 24.1636 8.53271 25.2242 8.53271 26.5325C8.53271 27.8407 9.5933 28.9013 10.9016 28.9013Z" fill="white"/>
<path d="M25.115 28.9013C26.4233 28.9013 27.4838 27.8407 27.4838 26.5325C27.4838 25.2242 26.4233 24.1636 25.115 24.1636C23.8067 24.1636 22.7461 25.2242 22.7461 26.5325C22.7461 27.8407 23.8067 28.9013 25.115 28.9013Z" fill="white"/>
</svg>
