<svg width="33" height="34" viewBox="0 0 33 34" fill="none" xmlns="http://www.w3.org/2000/svg">
<path fill-rule="evenodd" clip-rule="evenodd" d="M30.5311 0.931152H2.00102C1.02286 0.931152 0.230713 1.74262 0.230713 2.74463V31.9706C0.230713 32.9726 1.02286 33.7841 2.00102 33.7841H17.3597V21.0618H13.1809V16.1043H17.3597V12.4461C17.3597 8.20151 19.8901 5.89195 23.5862 5.89195C25.3565 5.89195 26.8767 6.02664 27.3209 6.08742V10.5226H24.7584C22.7476 10.5226 22.3595 11.5016 22.3595 12.9373V16.1026H27.1525L26.5271 21.0602H22.3579V33.7841H30.5311C31.5093 33.7841 32.3014 32.9726 32.3014 31.9706V2.74463C32.3014 1.74262 31.5093 0.931152 30.5311 0.931152Z" fill="#BC955C"/>
</svg>
