<svg width="32" height="31" viewBox="0 0 32 31" fill="none" xmlns="http://www.w3.org/2000/svg">
<path d="M30 28.6419L20.6667 19.7613M2 12.3607C2 13.7213 2.28165 15.0686 2.82887 16.3256C3.37609 17.5826 4.17815 18.7248 5.18928 19.6869C6.20041 20.649 7.40079 21.4121 8.72189 21.9328C10.043 22.4535 11.4589 22.7215 12.8889 22.7215C14.3188 22.7215 15.7348 22.4535 17.0559 21.9328C18.377 21.4121 19.5774 20.649 20.5885 19.6869C21.5996 18.7248 22.4017 17.5826 22.9489 16.3256C23.4961 15.0686 23.7778 13.7213 23.7778 12.3607C23.7778 11.0001 23.4961 9.65287 22.9489 8.39585C22.4017 7.13883 21.5996 5.99667 20.5885 5.03459C19.5774 4.0725 18.377 3.30934 17.0559 2.78866C15.7348 2.26799 14.3188 2 12.8889 2C11.4589 2 10.043 2.26799 8.72189 2.78866C7.40079 3.30934 6.20041 4.0725 5.18928 5.03459C4.17815 5.99667 3.37609 7.13883 2.82887 8.39585C2.28165 9.65287 2 11.0001 2 12.3607Z" stroke="#1D1D1B" stroke-width="4" stroke-linecap="round" stroke-linejoin="round"/>
</svg>
