<svg width="33" height="34" viewBox="0 0 33 34" fill="none" xmlns="http://www.w3.org/2000/svg">
<path d="M10.0647 0.931152H23.5344C28.6657 0.931152 32.8349 5.20203 32.8349 10.4585V24.2567C32.8349 26.7836 31.855 29.2069 30.1108 30.9936C28.3667 32.7803 26.001 33.7841 23.5344 33.7841H10.0647C4.93336 33.7841 0.76416 29.5132 0.76416 24.2567V10.4585C0.76416 7.93169 1.74403 5.50838 3.48822 3.72165C5.2324 1.93492 7.59802 0.931152 10.0647 0.931152ZM9.74397 4.21645C8.21294 4.21645 6.74462 4.83948 5.66203 5.94848C4.57943 7.05748 3.97123 8.56161 3.97123 10.13V24.5853C3.97123 27.8541 6.55293 30.4988 9.74397 30.4988H23.8551C25.3861 30.4988 26.8544 29.8758 27.937 28.7668C29.0196 27.6578 29.6278 26.1536 29.6278 24.5853V10.13C29.6278 6.86111 27.0461 4.21645 23.8551 4.21645H9.74397ZM25.2181 6.68042C25.7497 6.68042 26.2595 6.89675 26.6354 7.28182C27.0113 7.66689 27.2225 8.18916 27.2225 8.73373C27.2225 9.2783 27.0113 9.80056 26.6354 10.1856C26.2595 10.5707 25.7497 10.787 25.2181 10.787C24.6865 10.787 24.1767 10.5707 23.8008 10.1856C23.4249 9.80056 23.2137 9.2783 23.2137 8.73373C23.2137 8.18916 23.4249 7.66689 23.8008 7.28182C24.1767 6.89675 24.6865 6.68042 25.2181 6.68042ZM16.7995 9.14439C18.9259 9.14439 20.9653 10.0097 22.4689 11.55C23.9725 13.0903 24.8172 15.1793 24.8172 17.3576C24.8172 19.5359 23.9725 21.625 22.4689 23.1653C20.9653 24.7055 18.9259 25.5709 16.7995 25.5709C14.6731 25.5709 12.6338 24.7055 11.1302 23.1653C9.62656 21.625 8.78184 19.5359 8.78184 17.3576C8.78184 15.1793 9.62656 13.0903 11.1302 11.55C12.6338 10.0097 14.6731 9.14439 16.7995 9.14439ZM16.7995 12.4297C15.5237 12.4297 14.3001 12.9489 13.3979 13.873C12.4957 14.7972 11.9889 16.0507 11.9889 17.3576C11.9889 18.6646 12.4957 19.918 13.3979 20.8422C14.3001 21.7664 15.5237 22.2856 16.7995 22.2856C18.0754 22.2856 19.299 21.7664 20.2011 20.8422C21.1033 19.918 21.6101 18.6646 21.6101 17.3576C21.6101 16.0507 21.1033 14.7972 20.2011 13.873C19.299 12.9489 18.0754 12.4297 16.7995 12.4297Z" fill="#BC955C"/>
</svg>
