<svg width="146" height="151" viewBox="0 0 146 151" fill="none" xmlns="http://www.w3.org/2000/svg">
<path fill-rule="evenodd" clip-rule="evenodd" d="M72.6871 0.721191C53.4398 0.721191 34.9809 8.60361 21.371 22.6344C7.76118 36.6652 0.115234 55.695 0.115234 75.5375C0.115234 95.38 7.76118 114.41 21.371 128.441C34.9809 142.471 53.4398 150.354 72.6871 150.354C91.9343 150.354 110.393 142.471 124.003 128.441C137.613 114.41 145.259 95.38 145.259 75.5375C145.259 55.695 137.613 36.6652 124.003 22.6344C110.393 8.60361 91.9343 0.721191 72.6871 0.721191ZM10.5249 75.5375C10.5249 58.5412 17.0741 42.241 28.7318 30.2228C40.3895 18.2046 56.2006 11.4528 72.6871 11.4528C89.1735 11.4528 104.985 18.2046 116.642 30.2228C128.3 42.241 134.849 58.5412 134.849 75.5375C134.849 92.5338 128.3 108.834 116.642 120.852C104.985 132.87 89.1735 139.622 72.6871 139.622C56.2006 139.622 40.3895 132.87 28.7318 120.852C17.0741 108.834 10.5249 92.5338 10.5249 75.5375ZM45.6986 94.8996C45.2939 94.2747 44.7723 93.7393 44.1643 93.3248C43.5564 92.9103 42.8743 92.625 42.158 92.4856C41.4418 92.3463 40.7058 92.3557 39.9931 92.5133C39.2804 92.6709 38.6054 92.9735 38.0076 93.4034C37.4098 93.8333 36.9012 94.3819 36.5116 95.017C36.122 95.652 35.8593 96.3609 35.7388 97.102C35.6182 97.8431 35.6424 98.6015 35.8097 99.3328C35.9771 100.064 36.2843 100.754 36.7134 101.361C40.7517 107.339 46.132 112.222 52.3957 115.593C58.6595 118.964 65.621 120.724 72.6871 120.723C87.5893 120.723 100.738 113.053 108.661 101.361C109.457 100.132 109.754 98.63 109.488 97.1775C109.222 95.7251 108.415 94.438 107.239 93.5924C106.063 92.7468 104.612 92.41 103.198 92.6544C101.784 92.8988 100.52 93.7049 99.6755 94.8996C96.6466 99.3851 92.6104 103.049 87.911 105.578C83.2116 108.108 77.9885 109.428 72.6871 109.427C67.3857 109.428 62.1625 108.108 57.4631 105.578C52.7638 103.049 48.7275 99.3851 45.6986 94.8996ZM49.4023 68.1948C51.9451 68.1948 54.3839 67.1534 56.1819 65.2998C57.98 63.4461 58.9901 60.9319 58.9901 58.3104C58.9901 55.6889 57.98 53.1748 56.1819 51.3211C54.3839 49.4674 51.9451 48.4261 49.4023 48.4261C46.8594 48.4261 44.4207 49.4674 42.6226 51.3211C40.8246 53.1748 39.8144 55.6889 39.8144 58.3104C39.8144 60.9319 40.8246 63.4461 42.6226 65.2998C44.4207 67.1534 46.8594 68.1948 49.4023 68.1948ZM105.56 58.3104C105.56 60.9319 104.55 63.4461 102.751 65.2998C100.953 67.1534 98.5147 68.1948 95.9719 68.1948C93.429 68.1948 90.9903 67.1534 89.1922 65.2998C87.3942 63.4461 86.384 60.9319 86.384 58.3104C86.384 55.6889 87.3942 53.1748 89.1922 51.3211C90.9903 49.4674 93.429 48.4261 95.9719 48.4261C98.5147 48.4261 100.953 49.4674 102.751 51.3211C104.55 53.1748 105.56 55.6889 105.56 58.3104Z" fill="#FFA727"/>
</svg>
