<svg width="151" height="151" viewBox="0 0 151 151" fill="none" xmlns="http://www.w3.org/2000/svg">
<path d="M75.6884 69.4026C100.378 46.9577 113.097 35.436 113.097 20.8468C113.097 9.62434 103.745 0.721191 92.5221 0.721191C86.0879 0.721191 79.9529 3.41458 75.6884 8.20282C71.4239 3.41458 65.2889 0.721191 58.4058 0.721191C47.1834 0.721191 38.2802 10.0732 38.2802 21.2957C38.2802 35.436 50.999 46.9577 75.6884 69.4026ZM69.5535 75.5375C47.1086 50.8481 35.5868 38.1294 20.9977 38.1294C9.77521 38.1294 0.87207 47.4814 0.87207 58.7038C0.87207 65.1381 3.56546 71.273 8.3537 75.5375C3.56546 79.8021 0.87207 85.937 0.87207 92.8201C0.87207 104.043 10.2241 112.946 21.4466 112.946C35.5868 112.946 47.1086 100.227 69.5535 75.5375ZM81.8982 75.5375C104.268 100.227 115.79 112.946 130.379 112.946C141.602 112.946 150.505 103.594 150.505 92.3712C150.505 85.937 147.811 79.8021 143.023 75.5375C147.811 71.273 150.505 65.1381 150.505 58.2549C150.505 47.0325 141.153 38.1294 129.93 38.1294C115.79 38.1294 104.268 50.8481 81.8982 75.5375ZM75.6884 81.6725C50.999 104.117 38.2802 115.639 38.2802 130.228C38.2802 141.451 47.6323 150.354 58.8547 150.354C65.2889 150.354 71.4239 147.66 75.6884 142.872C79.9529 147.66 86.0879 150.354 92.971 150.354C104.193 150.354 113.097 141.002 113.097 129.779C113.097 115.639 100.378 104.117 75.6884 81.6725Z" fill="#FFA727"/>
</svg>
