<svg width="46" height="37" viewBox="0 0 46 37" fill="none" xmlns="http://www.w3.org/2000/svg">
<path d="M18.1473 26.6573L29.9204 18.9006L18.1473 11.144V26.6573ZM44.3702 6.41241C44.6651 7.62762 44.8693 9.25651 45.0054 11.325C45.1642 13.3934 45.2322 15.1774 45.2322 16.7288L45.3684 18.9006C45.3684 24.563 45.0054 28.7257 44.3702 31.3888C43.8031 33.7158 42.4875 35.2155 40.4459 35.8618C39.3797 36.198 37.4289 36.4307 34.4346 36.5858C31.4856 36.7668 28.7862 36.8444 26.291 36.8444L22.6842 36.9995C13.1795 36.9995 7.25894 36.5858 4.92247 35.8618C2.88089 35.2155 1.56521 33.7158 0.998104 31.3888C0.70321 30.1736 0.499052 28.5447 0.362947 26.4763C0.204158 24.4079 0.136105 22.6238 0.136105 21.0725L0 18.9006C0 13.2383 0.362947 9.07553 0.998104 6.41241C1.56521 4.08541 2.88089 2.58579 4.92247 1.9394C5.98862 1.60328 7.93946 1.37058 10.9338 1.21545C13.8827 1.03446 16.5821 0.956891 19.0774 0.956891L22.6842 0.801758C32.1888 0.801758 38.1094 1.21545 40.4459 1.9394C42.4875 2.58579 43.8031 4.08541 44.3702 6.41241Z" fill="white"/>
</svg>
