<svg width="46" height="33" viewBox="0 0 46 33" fill="none" xmlns="http://www.w3.org/2000/svg">
<path d="M18.1473 23.2299L29.9204 16.3576L18.1473 9.48533V23.2299ZM44.3702 5.29323C44.6651 6.36989 44.8693 7.81307 45.0054 9.64568C45.1642 11.4783 45.2322 13.0589 45.2322 14.4334L45.3684 16.3576C45.3684 21.3744 45.0054 25.0625 44.3702 27.422C43.8031 29.4837 42.4875 30.8124 40.4459 31.3851C39.3797 31.6829 37.4289 31.889 34.4346 32.0265C31.4856 32.1868 28.7862 32.2556 26.291 32.2556L22.6842 32.393C13.1795 32.393 7.25894 32.0265 4.92247 31.3851C2.88089 30.8124 1.56521 29.4837 0.998104 27.422C0.70321 26.3454 0.499052 24.9022 0.362947 23.0696C0.204158 21.237 0.136105 19.6563 0.136105 18.2819L0 16.3576C0 11.3409 0.362947 7.65272 0.998104 5.29323C1.56521 3.23154 2.88089 1.90289 4.92247 1.3302C5.98862 1.0324 7.93946 0.826234 10.9338 0.688788C13.8827 0.528434 16.5821 0.459711 19.0774 0.459711L22.6842 0.322266C32.1888 0.322266 38.1094 0.688788 40.4459 1.3302C42.4875 1.90289 43.8031 3.23154 44.3702 5.29323Z" fill="#BC955C"/>
</svg>
